# xmcd
#
# Track frame offsets: 
#        150
#        11225
#        23980
#        35205
#        48210
#        61242
#        72730
#        84240
#        94547
#        107232
#
# Disc length: 1565 seconds
#
# Revision: 1
# Processed by: cddbd v1.5.1PL0 Copyright (c) Steve Scherf et al.
# Submitted via: ExactAudioCopy v0.90b4
#
DISCID=83061b0a
DTITLE=Patsy Cline - Here's Patsy Cline
DYEAR=1965
DGENRE=Country
TTITLE0=Stop The World (And Let Me Off)
TTITLE1=Yes I Understand
TTITLE2=Just Out Of Reach(Of My Two Open Arms)
TTITLE3=Life's Railway To Heaven
TTITLE4=If I Could See The World(Through The Eyes Of A Child)
TTITLE5=I've Loved And Lost Again
TTITLE6=In Care Of The Blues
TTITLE7=How Can I Face Tomorrow
TTITLE8=Just A Closer Walk With Thee
TTITLE9=Walking Dream
EXTD=1988 MCA Records, Inc.\nOriginally Released 1965\nCD Edition Rele
EXTD=ased April 1988\n\nHalf.com Album Credits\nAnita Kerr Singers, Co
EXTD=ntributing Artist\nThe Jordanaires, Contributing Artist\nOwen Bra
EXTD=dley, Producer\n\nAlbum Notes\nPersonnel: Patsy Cline (vocals) - H
EXTD=ank Garland, Grady Martin (guitar) - Jimmy Day (steel guitar) - Flo
EXTD=yd Cramer (piano) - Harold Bradley, Bob Moore (bass) - Farris Cours
EXTD=ey, Buddy Harman (drums).\n\nAnita Kerr Singers: Anita Kerr, Dott
EXTD=ie Dillard, Louis Nunley, Gil Wright (background vocals).\n\nThe 
EXTD=Jordanaires: Gordon Stoker, Hoyt Hawkins, Ray Walker, Neal Matthe
EXTD=ws, Jr. (background vocals).\n\nIncludes chronology and liner not
EXTD=es by Jay Orr and Don Roy.\n\nAt the time of Patsy Cline's death 
EXTD=in 1963, the sum of her recording career totaled three long-playi
EXTD=ng records--36 songs in all. These three records, PATSY CLINE, SH
EXTD=OWCASE and SENTIMENTALLY YOURS, represented one-third of her tota
EXTD=l studio recorded material. In 1965, HERE'S PATSY CLINE was relea
EXTD=sed on the Vocalion label, a Decca subsidiary, to give fans even 
EXTD=more reason to mourn the loss of this American treasure.\n\nThe 1
EXTD=0 songs on HERE'S PATSY CLINE cover the recording years 1957 to 1
EXTD=960 and convey the sonic trajectory that Cline and her producer, 
EXTD=Owen Bradley, created over the course of their short but intense 
EXTD=collaboration. From straightforward country to her later jazzier,
EXTD=more urbane country pop style, a number of tunes on this release
EXTD=, such as "If I Could See The World (Through The Eyes of a Child)
EXTD=" and "I've Loved and Lost Again," will already be familiar to fa
EXTD=ns. In addition to Cline's superior vocal performances and some c
EXTD=hoice Cline cuts, the instrumentation on HERE'S PATSY CLINE is eq
EXTD=ually impressive, particularly Hank Garland's tasty guitar playin
EXTD=g on the mournful "Yes, I Understand" and the gospel standard, "L
EXTD=ife's Railway to Heaven."
EXTT0=
EXTT1=
EXTT2=
EXTT3=
EXTT4=
EXTT5=
EXTT6=
EXTT7=
EXTT8=
EXTT9=
PLAYORDER=
